<?xml version="1.0" encoding="UTF-8" standalone="no"?><!DOCTYPE svg PUBLIC "-//W3C//DTD SVG 1.1//EN" "http://www.w3.org/Graphics/SVG/1.1/DTD/svg11.dtd"><svg width="100%" height="100%" viewBox="0 0 9221 4167" version="1.1" xmlns="http://www.w3.org/2000/svg" xmlns:xlink="http://www.w3.org/1999/xlink" xml:space="preserve" xmlns:serif="http://www.serif.com/" style="fill-rule:evenodd;clip-rule:evenodd;"><g id="layer1"><path id="rect9268" d="M9216.18,116.021c-0,-61.474 -49.909,-111.382 -111.382,-111.382l-8988.78,-0c-61.474,-0 -111.382,49.908 -111.382,111.382l-0,3934.38c-0,61.473 49.908,111.382 111.382,111.382l8988.78,-0c61.473,-0 111.382,-49.909 111.382,-111.382l-0,-3934.38Z" style="fill:#fff;stroke:#039;stroke-width:9.28px;"/><path id="rect9920" d="M155.448,41.747l8912.24,0c80.269,0 111.382,31.088 111.382,111.383l0,743.211c0,35.533 -3.276,126.279 -57.398,126.279c-44.79,0 -5357.88,-0.793 -6941.43,-0.793c-90.33,-0 -179.663,-6.99 -179.663,130.808c-0,124.877 12.261,1541.01 12.261,1617.2c0,46.864 4.309,107.805 76.113,107.805c35.082,0 6941.11,-0.279 6975.32,-0.279c77.986,-0 114.799,15.554 114.799,97.235l0,440.317c0,73.204 -42.321,97.466 -99.903,97.466c0,-0 -1597.08,0.462 -2259.68,0.462c-138.875,-0 -126.912,123.766 -126.912,152.771c0,155.344 0.706,322.295 0.706,361.65c-0,38.776 -15.147,96.251 -67.061,96.251l-6470.77,-0c-73.204,-0 -111.382,-15.223 -111.382,-111.382l-0,-3859c-0,-96.523 40.39,-111.383 111.382,-111.383l0.001,0l0,0Z" style="fill:#039;fill-rule:nonzero;"/><path id="rect9792" d="M1335.23,327.076c0,-49.953 -40.555,-90.508 -90.508,-90.508l-936.195,-0c-49.953,-0 -90.509,40.555 -90.509,90.508l0,464.719c0,49.953 40.556,90.509 90.509,90.509l936.195,-0c49.953,-0 90.508,-40.556 90.508,-90.509l0,-464.719Z" style="fill:#d40000;stroke:#fff;stroke-width:27.83px;"/><g id="text9798"><path id="path9812" d="M539.453,593.739l86.043,-0l-43.014,-129.881l-43.029,129.881Zm-54.381,162.35l-64.94,0l129.88,-389.641l64.94,0l129.881,389.641l-64.941,0l-32.47,-97.41l-129.88,-0l-32.47,97.41Z" style="fill:#fff;fill-rule:nonzero;"/><path id="path9814" d="M1013.02,366.448l64.941,0l-0,227.291l48.705,-0l-16.235,64.94l-32.47,-0l-0,97.41l-64.941,0l0,-97.41l-162.35,-0l0,-64.94l162.35,-227.291Zm0,227.291l0,-136.381l-97.41,136.381l97.41,-0Z" style="fill:#fff;fill-rule:nonzero;"/></g><g id="text9807"><path id="path10484" d="M1682.86,218.524l78.736,0l78.736,327.546l78.736,-327.546l78.736,0l78.735,327.546l78.736,-327.546l78.736,0l-118.104,491.319l-78.735,0l-78.736,-327.546l-78.736,327.546l-78.736,0l-118.104,-491.319Z" style="fill:#fff;fill-rule:nonzero;"/><path id="path10486" d="M2293.07,382.297l78.736,0l-0,17.393c24.937,-11.595 51.183,-17.393 78.736,-17.393l-0,81.887c-30.18,-0 -56.426,10.576 -78.736,31.727l-0,213.932l-78.736,0l0,-327.546Z" style="fill:#fff;fill-rule:nonzero;"/><path id="path10488" d="M2558.8,668.9c-32.807,-34.119 -49.21,-75.063 -49.209,-122.83c-0.001,-47.767 16.402,-88.71 49.209,-122.83c32.807,-34.119 72.175,-51.178 118.104,-51.179c45.929,0.001 85.297,17.06 118.103,51.179c32.806,34.12 49.21,75.063 49.21,122.83c0,47.767 -16.404,88.711 -49.21,122.83c-32.806,34.119 -72.174,51.179 -118.103,51.179c-45.929,0 -85.297,-17.06 -118.104,-51.179Zm55.611,-187.823c-17.39,18.086 -26.085,39.75 -26.085,64.993c-0,25.243 8.695,46.908 26.085,64.994c17.39,18.086 38.221,27.129 62.493,27.128c24.271,0.001 45.102,-9.042 62.493,-27.128c17.389,-18.086 26.084,-39.751 26.085,-64.994c-0.001,-25.243 -8.696,-46.907 -26.085,-64.993c-17.391,-18.086 -38.222,-27.129 -62.493,-27.129c-24.272,0 -45.103,9.043 -62.493,27.129Z" style="fill:#fff;fill-rule:nonzero;"/><path id="path10490" d="M3193.61,682.215c-30.18,25.243 -64.953,37.864 -104.321,37.864c-46.583,0 -86.115,-17.06 -118.594,-51.179c-32.48,-34.119 -48.72,-75.233 -48.72,-123.34c0,-48.106 16.24,-89.05 48.72,-122.829c32.479,-33.78 72.011,-50.669 118.594,-50.67c34.766,0.001 66.26,10.236 94.479,30.708l-30.507,79.847c-17.057,-19.112 -38.381,-28.668 -63.972,-28.668c-24.285,0 -45.119,8.87 -62.503,26.609c-17.384,17.74 -26.075,39.404 -26.075,64.993c-0,25.59 8.691,47.428 26.075,65.514c17.384,18.086 38.218,27.129 62.503,27.128c27.552,0.001 50.189,-10.915 67.913,-32.746l36.408,76.769Z" style="fill:#fff;fill-rule:nonzero;"/><path id="path10492" d="M3325.24,218.524l78.736,0l-0,122.83l78.736,-40.943l-0,81.886l-78.736,40.943l-0,286.603l-78.736,0l0,-245.659l-78.736,40.943l0,-81.887l78.736,-40.943l0,-163.773Z" style="fill:#fff;fill-rule:nonzero;"/><path id="path10494" d="M3566.37,661.743c-30.833,-32.08 -46.25,-70.638 -46.25,-115.673c0,-45.035 15.417,-83.589 46.25,-115.663c30.832,-32.073 67.907,-48.11 111.222,-48.11c28.205,0 54.451,7.504 78.736,22.511l-0,-22.511l78.736,0l-0,245.66l19.684,81.886l-78.736,0l-6.901,-30.707c-27.553,20.471 -58.059,30.707 -91.519,30.707c-43.315,0 -80.39,-16.033 -111.222,-48.1Zm55.611,-174.529c-15.417,16.034 -23.125,35.652 -23.125,58.856c0,23.204 7.708,42.823 23.125,58.856c15.416,16.034 33.95,24.05 55.601,24.05c21.651,0 40.188,-8.016 55.611,-24.05c15.423,-16.033 23.134,-35.652 23.135,-58.856c-0.001,-23.204 -7.712,-42.822 -23.135,-58.856c-15.423,-16.033 -33.96,-24.05 -55.611,-24.05c-21.651,0 -40.185,8.017 -55.601,24.05Z" style="fill:#fff;fill-rule:nonzero;"/><path id="path10496" d="M3913.3,382.297l78.736,0l43.309,182.206l55.111,-182.206l78.736,0l55.111,182.206l43.309,-182.206l78.735,0l-78.735,327.546l-78.736,0l-59.052,-196.519l-59.052,196.519l-78.736,0l-78.736,-327.546Z" style="fill:#fff;fill-rule:nonzero;"/></g><path id="path9816" d="M603.709,3998.82l-0,-2249.43l-226.167,219.876l-0,-254.191l396.397,-390.817l400.039,403.655l0,245.839l-235.759,-229.208l-0,1128.22c264.788,-577.652 428.183,-613.07 650.119,-766.444l-103.448,-25.806l146.773,-78.082l215.694,63.189l-47.1,210.954l-152.195,94.606l35.819,-144.399c-599.548,342.791 -735.501,1017.74 -735.501,1267.68l-0,504.444l-133.417,-0l-0,-2372.78l-40.648,-40.254l-42.153,41.745l0,2371.29l-128.453,-0.084l-0,0.001Z" style="fill:#fff;fill-rule:nonzero;"/><g id="g9818"><path id="path9820" d="M1585.62,2489.36l0,0.086c0,147.592 -121.449,269.041 -269.041,269.041c-147.591,-0 -269.04,-121.449 -269.04,-269.041l-0,-0.086c-0,-147.592 121.449,-269.041 269.04,-269.041c147.592,0 269.041,121.449 269.041,269.041Z" style="fill:#fff;fill-rule:nonzero;stroke:#d40000;stroke-width:65.82px;stroke-linecap:round;"/><g id="g9822"><path id="path9824" d="M1194.68,2401.45l-3.995,47.996c6.472,-1.525 12.948,-2.287 19.428,-2.288c25.138,0.001 46.658,8.952 64.562,26.855c17.903,17.903 26.854,39.424 26.854,64.562c0,25.138 -8.951,46.659 -26.854,64.562c-17.904,17.903 -39.424,26.854 -64.562,26.854c-4.575,0 -9.337,-0.379 -14.284,-1.138l-64.567,-10.289l3.426,-45.708l67.993,10.858c2.663,0.379 5.14,0.569 7.432,0.569c12.565,0 23.324,-4.38 32.278,-13.14c8.953,-8.76 13.43,-19.616 13.43,-32.568c0,-12.952 -4.477,-23.808 -13.43,-32.568c-8.954,-8.76 -19.713,-13.14 -32.278,-13.14l-68.562,-0l11.427,-137.125l137.124,-0l0,45.708l-95.422,0Z" style="fill-rule:nonzero;"/><path id="path9826" d="M1395.22,2424.87c-7.618,22.096 -11.427,44.76 -11.427,67.994c0,23.233 3.809,45.898 11.427,67.993c2.292,6.852 6.579,12.469 12.861,16.85c6.283,4.382 13.425,6.573 21.426,6.573c8.001,0 15.143,-2.191 21.426,-6.573c6.282,-4.381 10.566,-9.998 12.85,-16.85c7.618,-22.095 11.427,-44.76 11.427,-67.993c-0,-23.234 -3.809,-45.898 -11.427,-67.994c-2.284,-6.851 -6.568,-12.468 -12.85,-16.85c-6.283,-4.382 -13.425,-6.573 -21.426,-6.573c-8.001,0 -15.143,2.191 -21.426,6.573c-6.282,4.382 -10.569,9.999 -12.861,16.85Zm-41.133,152.558c-10.668,-30.859 -16.002,-59.047 -16.002,-84.564c0,-25.518 5.334,-53.706 16.002,-84.565c5.714,-15.615 15.426,-28.279 29.137,-37.992c13.711,-9.712 29.137,-14.568 46.278,-14.568c17.14,0 32.568,4.856 46.283,14.568c13.714,9.713 23.428,22.377 29.142,37.992c10.661,30.859 15.991,59.047 15.991,84.565c-0,25.517 -5.33,53.705 -15.991,84.564c-5.714,15.616 -15.428,28.28 -29.142,37.992c-13.715,9.712 -29.143,14.568 -46.283,14.568c-17.141,0 -32.567,-4.856 -46.278,-14.568c-13.711,-9.712 -23.423,-22.376 -29.137,-37.992Z" style="fill-rule:nonzero;"/></g></g><path id="rect9830" d="M9179.75,1136.32c0,-45.88 -37.248,-83.129 -83.128,-83.129l-6978.41,0c-45.88,0 -83.128,37.249 -83.128,83.129l-0,1626.52c-0,45.88 37.248,83.128 83.128,83.128l6978.41,0c45.88,0 83.128,-37.248 83.128,-83.128l0,-1626.52Z" style="fill:#2c5c32;"/><path id="rect9828" d="M3623.02,1634.97c0,-8.77 -7.119,-15.889 -15.889,-15.889l-1434.76,-0c-8.769,-0 -15.889,7.119 -15.889,15.889l-0,609.038c-0,8.77 7.12,15.889 15.889,15.889l1434.76,0c8.77,0 15.889,-7.119 15.889,-15.889l0,-609.038Z" style="fill:#febe0b;stroke:#000;stroke-width:27.83px;"/><g id="text9832"><path id="path9837" d="M3775.5,1215.64l78.735,0l0,202.677l171.254,-202.677l104.322,0l-184.038,218.031l184.038,273.288l-96.459,0l-140.729,-209.834l-38.388,46.061l0,163.773l-78.735,0l-0,-491.319Z" style="fill:#fff;fill-rule:nonzero;"/><path id="path9839" d="M4456.33,1818.53l-37.407,52.198c-26.246,-20.472 -39.369,-47.767 -39.368,-81.886c-0.001,-34.12 13.122,-61.415 39.368,-81.887c-7.869,10.916 -11.803,24.564 -11.803,40.943c-0,16.38 4.591,31.051 13.773,44.012c9.182,12.962 20.994,21.835 35.437,26.62Zm-32.487,-306.055c-5.907,-17.74 -16.57,-32.41 -31.986,-44.012c-15.417,-11.602 -32.64,-17.403 -51.67,-17.403c-19.031,0 -36.254,5.801 -51.671,17.403c-15.416,11.602 -26.079,26.272 -31.986,44.012l167.313,-0Zm-167.313,61.415c6.561,18.419 17.387,33.259 32.477,44.521c15.089,11.262 32.149,16.894 51.18,16.893l118.104,-10.235l-39.368,81.886l-53.151,8.197c-10.496,1.359 -19.024,2.039 -25.585,2.039c-45.929,0 -85.297,-17.06 -118.104,-51.179c-32.807,-34.119 -49.21,-75.063 -49.21,-122.83c0,-47.767 16.403,-88.71 49.21,-122.83c32.807,-34.119 72.175,-51.178 118.104,-51.179c58.398,0.001 104.327,25.25 137.788,75.749l-0,128.968l-221.445,-0Z" style="fill:#fff;fill-rule:nonzero;"/><path id="path9841" d="M4601,1658.86c-30.833,-32.08 -46.25,-70.638 -46.25,-115.673c0,-45.035 15.417,-83.589 46.25,-115.663c30.833,-32.073 67.907,-48.11 111.222,-48.11c28.206,0 54.452,7.504 78.736,22.511l-0,-186.284l78.736,0l-0,491.319l-78.736,0l-0,-22.511c-24.284,15.008 -50.53,22.511 -78.736,22.511c-43.315,0 -80.389,-16.033 -111.222,-48.1Zm55.612,-174.529c-15.417,16.034 -23.126,35.652 -23.126,58.856c0,23.204 7.709,42.823 23.126,58.856c15.415,16.034 33.949,24.05 55.601,24.05c21.651,0 40.188,-8.016 55.61,-24.05c15.423,-16.033 23.135,-35.652 23.135,-58.856c-0,-23.204 -7.712,-42.822 -23.135,-58.856c-15.422,-16.033 -33.959,-24.05 -55.61,-24.05c-21.652,0 -40.186,8.017 -55.601,24.05Z" style="fill:#fff;fill-rule:nonzero;"/><path id="path9843" d="M5181.17,1625.07l-0,81.886l-216.524,0l-0,-37.864l108.262,-207.795l-108.262,-0l-0,-81.887l216.524,0l-0,37.865l-108.262,207.795l108.262,-0Z" style="fill:#fff;fill-rule:nonzero;"/><path id="path9845" d="M5273.53,1379.41l78.736,0l-0,327.546l-78.736,0l0,-327.546Zm0,-163.773l78.736,0l-0,81.887l-78.736,-0l0,-81.887Z" style="fill:#fff;fill-rule:nonzero;"/><path id="path9847" d="M5698.38,1512.48c-5.908,-17.74 -16.571,-32.41 -31.986,-44.012c-15.417,-11.602 -32.641,-17.403 -51.671,-17.403c-19.031,0 -36.254,5.801 -51.671,17.403c-15.416,11.602 -26.078,26.272 -31.985,44.012l167.313,-0Zm-167.313,61.415c6.56,18.419 17.386,33.259 32.476,44.521c15.09,11.262 32.149,16.894 51.18,16.893c34.113,0.001 73.481,-3.411 118.104,-10.235l-39.368,81.886l-53.151,8.197c-10.495,1.359 -19.024,2.039 -25.585,2.039c-45.93,0 -85.297,-17.06 -118.104,-51.179c-32.806,-34.119 -49.21,-75.063 -49.21,-122.83c0,-47.767 16.404,-88.71 49.21,-122.83c32.807,-34.119 72.174,-51.178 118.104,-51.179c58.398,0.001 104.327,25.25 137.788,75.749l-0,128.968l-221.444,-0Z" style="fill:#fff;fill-rule:nonzero;"/><path id="path9849" d="M5847.65,1379.41l78.736,0l-0,17.393c24.938,-11.595 51.183,-17.393 78.736,-17.393l-0,81.887c-30.18,-0 -56.425,10.576 -78.736,31.727l-0,213.932l-78.736,0l0,-327.546Z" style="fill:#fff;fill-rule:nonzero;"/><path id="path9851" d="M6281.02,1625.07l0,81.886l-216.523,0l-0,-37.864l108.262,-207.795l-108.262,-0l-0,-81.887l216.523,0l0,37.865l-108.261,207.795l108.261,-0Z" style="fill:#fff;fill-rule:nonzero;"/><path id="path9853" d="M6337.29,1379.41l78.736,0l59.052,196.52l59.052,-196.52l78.736,0l-147.63,491.319l-78.736,0l49.21,-163.773l-98.42,-327.546Z" style="fill:#fff;fill-rule:nonzero;"/><path id="path9855" d="M6688.32,1379.41l78.736,0l0,31.727c22.311,-21.151 48.556,-31.727 78.736,-31.727c32.153,0 59.875,11.942 83.167,35.825c23.291,23.884 34.937,52.886 34.937,87.005l-0,204.716l-78.736,0l-0,-184.245c-0,-17.059 -5.741,-31.56 -17.223,-43.502c-11.483,-11.941 -25.425,-17.912 -41.829,-17.912c-16.404,-0 -30.346,5.971 -41.829,17.912c-11.482,11.942 -17.223,26.443 -17.223,43.502l0,184.245l-78.736,0l0,-327.546Z" style="fill:#fff;fill-rule:nonzero;"/><rect id="path9857" x="7061.29" y="1385.91" width="250.243" height="81.887" style="fill:#fff;fill-rule:nonzero;"/><path id="path9859" d="M7441.23,1215.64l78.736,0l-0,202.677l171.254,-202.677l104.321,0l-184.037,218.031l184.037,273.288l-96.459,0l-140.729,-209.834l-38.387,46.061l-0,163.773l-78.736,0l0,-491.319Z" style="fill:#fff;fill-rule:nonzero;"/><path id="path9861" d="M7887.81,1666.01c-32.806,-34.119 -49.209,-75.063 -49.209,-122.83c-0,-47.767 16.403,-88.71 49.209,-122.83c32.807,-34.119 72.175,-51.178 118.104,-51.179c45.93,0.001 85.297,17.06 118.104,51.179c32.806,34.12 49.21,75.063 49.21,122.83c-0,47.767 -16.404,88.711 -49.21,122.83c-32.807,34.119 -72.174,51.179 -118.104,51.179c-45.929,0 -85.297,-17.06 -118.104,-51.179Zm55.612,-187.823c-17.391,18.086 -26.086,39.75 -26.086,64.993c0,25.243 8.695,46.908 26.086,64.994c17.39,18.086 38.221,27.129 62.492,27.128c24.272,0.001 45.103,-9.042 62.493,-27.128c17.39,-18.086 26.085,-39.751 26.085,-64.994c-0,-25.243 -8.695,-46.907 -26.085,-64.993c-17.39,-18.086 -38.221,-27.129 -62.493,-27.129c-24.271,0 -45.102,9.043 -62.492,27.129Z" style="fill:#fff;fill-rule:nonzero;"/><path id="path9863" d="M8380.89,1215.64l78.736,0l-118.104,122.83l39.368,-122.83Zm84.637,409.433l0,81.886l-216.523,0l-0,-37.864l108.261,-207.795l-108.261,-0l-0,-81.887l216.523,0l0,37.865l-108.262,207.795l108.262,-0Z" style="fill:#fff;fill-rule:nonzero;"/><rect id="path9865" x="8564.45" y="1215.64" width="78.736" height="491.319" style="fill:#fff;fill-rule:nonzero;"/><path id="path9867" d="M8990.27,1512.48c-5.907,-17.74 -16.57,-32.41 -31.986,-44.012c-15.416,-11.602 -32.64,-17.403 -51.67,-17.403c-19.031,0 -36.254,5.801 -51.671,17.403c-15.416,11.602 -26.078,26.272 -31.987,44.012l167.314,-0Zm-167.314,61.415c6.562,18.419 17.387,33.259 32.477,44.521c15.09,11.262 32.15,16.894 51.181,16.893c34.113,0.001 73.481,-3.411 118.104,-10.235l-39.368,81.886l-53.151,8.197c-10.496,1.359 -19.025,2.039 -25.585,2.039c-45.93,0 -85.298,-17.06 -118.104,-51.179c-32.806,-34.119 -49.21,-75.063 -49.21,-122.83c0,-47.767 16.404,-88.71 49.21,-122.83c32.806,-34.119 72.174,-51.178 118.104,-51.179c58.398,0.001 104.327,25.25 137.787,75.749l0,128.968l-221.445,-0Z" style="fill:#fff;fill-rule:nonzero;"/></g><g id="text9869"><path id="path9874" d="M3955.97,2330.73c-0,-0 -93.499,-57.337 -93.499,-57.337c-19.684,-11.595 -35.267,-27.628 -46.75,-48.1c-11.482,-20.471 -17.223,-42.649 -17.223,-66.533c0,-36.851 12.466,-68.242 37.398,-94.172c24.931,-25.928 55.113,-38.893 90.548,-38.894c44.621,0.001 88.583,6.485 131.886,19.452l-25.586,77.789c-34.78,-10.236 -70.213,-15.354 -106.3,-15.354c-13.777,0 -25.422,4.948 -34.938,14.844c-9.515,9.896 -14.273,22.008 -14.272,36.335c-0.001,19.792 8.201,34.466 24.604,44.022l93.5,57.317c20.99,12.275 37.72,29.501 50.189,51.678c12.47,22.178 18.704,46.235 18.705,72.171c-0.001,39.584 -13.45,73.363 -40.349,101.339c-26.9,27.975 -59.379,41.962 -97.439,41.962c-59.053,0 -115.811,-10.575 -170.275,-31.727l24.606,-77.788c46.595,18.419 95.152,27.629 145.669,27.629c16.403,-0 30.345,-5.971 41.828,-17.913c11.482,-11.941 17.223,-26.442 17.224,-43.502c-0.001,-23.204 -9.843,-40.943 -29.526,-53.218Z" style="fill:#fff;fill-rule:nonzero;"/><path id="path9876" d="M4173.72,2107.58l78.736,-81.887l-0,163.773l59.052,0l-0,81.887l-59.052,-0l-0,122.83c-0,11.595 3.773,21.318 11.322,29.168c7.548,7.85 16.897,11.775 28.046,11.775l41.328,0l-41.328,81.887c-32.807,-0 -60.692,-11.942 -83.657,-35.826c-22.965,-23.883 -34.447,-52.885 -34.447,-87.004l0,-122.83l-59.052,-0l0,-81.887l59.052,0l0,-81.886Z" style="fill:#fff;fill-rule:nonzero;"/><path id="path9878" d="M4411.16,2189.46l78.735,0l0,17.393c24.939,-11.595 51.184,-17.392 78.736,-17.393l0,81.887c-30.179,0 -56.424,10.576 -78.736,31.727l0,213.933l-78.735,-0l-0,-327.547Z" style="fill:#fff;fill-rule:nonzero;"/><path id="path9880" d="M4828.12,2435.12l0,81.887l-216.523,-0l-0,-37.865l108.261,-207.795l-108.261,-0l-0,-81.887l216.523,0l0,37.865l-108.262,207.795l108.262,0Z" style="fill:#fff;fill-rule:nonzero;"/><path id="path9882" d="M5161.61,2322.53c-5.909,-17.739 -16.57,-32.41 -31.987,-44.012c-15.417,-11.602 -32.64,-17.403 -51.671,-17.403c-19.03,0 -36.254,5.801 -51.669,17.403c-15.417,11.602 -26.079,26.273 -31.987,44.012l167.314,0Zm-167.314,61.415c6.561,18.419 17.387,33.26 32.476,44.522c15.09,11.262 32.15,16.893 51.18,16.893c34.114,-0 73.482,-3.412 118.104,-10.236l-39.368,81.887l-53.15,8.196c-10.496,1.36 -19.024,2.039 -25.586,2.039c-45.928,0 -85.296,-17.059 -118.103,-51.179c-32.807,-34.119 -49.21,-75.062 -49.21,-122.829c-0,-47.767 16.403,-88.711 49.21,-122.83c32.807,-34.119 72.175,-51.179 118.103,-51.179c58.399,-0 104.328,25.25 137.788,75.749l0,128.967l-221.444,-0Z" style="fill:#fff;fill-rule:nonzero;"/><rect id="path9884" x="5307.6" y="2025.69" width="78.736" height="491.319" style="fill:#fff;fill-rule:nonzero;"/><path id="path9886" d="M5752.13,2489.38c-30.18,25.243 -64.954,37.864 -104.321,37.864c-46.583,0 -86.114,-17.059 -118.594,-51.179c-32.479,-34.119 -48.719,-75.232 -48.719,-123.339c-0,-48.107 16.24,-89.05 48.719,-122.83c32.48,-33.779 72.011,-50.669 118.594,-50.669c34.767,-0 66.26,10.236 94.479,30.707l-30.506,79.847c-17.057,-19.112 -38.381,-28.668 -63.973,-28.668c-24.285,0 -45.119,8.87 -62.502,26.609c-17.384,17.74 -26.076,39.404 -26.075,64.994c-0.001,25.589 8.691,47.427 26.075,65.513c17.383,18.086 38.217,27.129 62.502,27.129c27.552,-0 50.19,-10.916 67.914,-32.747l36.407,76.769Z" style="fill:#fff;fill-rule:nonzero;"/><path id="path9888" d="M6078.96,2322.53c-5.907,-17.739 -16.57,-32.41 -31.986,-44.012c-15.417,-11.602 -32.64,-17.403 -51.67,-17.403c-19.031,0 -36.254,5.801 -51.671,17.403c-15.416,11.602 -26.079,26.273 -31.986,44.012l167.313,0Zm-167.313,61.415c6.561,18.419 17.387,33.26 32.477,44.522c15.09,11.262 32.149,16.893 51.18,16.893c34.113,-0 73.481,-3.412 118.104,-10.236l-39.368,81.887l-53.151,8.196c-10.496,1.36 -19.024,2.039 -25.585,2.039c-45.93,0 -85.298,-17.059 -118.104,-51.179c-32.806,-34.119 -49.21,-75.062 -49.21,-122.829c0,-47.767 16.404,-88.711 49.21,-122.83c32.806,-34.119 72.174,-51.179 118.104,-51.179c58.398,-0 104.327,25.25 137.788,75.749l-0,128.967l-221.445,-0Z" style="fill:#fff;fill-rule:nonzero;"/><path id="path9890" d="M6601.88,2452.54c-47.89,-49.82 -71.835,-110.215 -71.835,-181.186c0,-70.971 23.948,-131.363 71.844,-181.176c47.896,-49.812 105.965,-74.719 174.206,-74.719c68.239,0 126.308,24.907 174.204,74.719c47.896,49.813 71.844,110.205 71.845,181.176c-0.001,70.971 -23.949,131.363 -71.845,181.176c-47.896,49.813 -105.965,74.719 -174.204,74.719c-68.241,0 -126.312,-24.903 -174.215,-74.709Zm56.111,-304.016c-32.807,34.12 -49.21,75.063 -49.21,122.83c-0,47.767 16.403,88.711 49.21,122.83c32.806,34.119 72.174,51.179 118.104,51.179c45.928,-0 85.296,-17.06 118.103,-51.179c32.807,-34.119 49.209,-75.063 49.21,-122.83c-0.001,-47.767 -16.403,-88.71 -49.21,-122.83c-32.807,-34.119 -72.175,-51.178 -118.103,-51.179c-45.93,0.001 -85.298,17.06 -118.104,51.179Z" style="fill:#fff;fill-rule:nonzero;"/><path id="path9892" d="M7202.74,2294.38c-15.416,16.033 -23.124,35.652 -23.124,58.856c-0,23.203 7.708,42.822 23.124,58.855c15.417,16.034 33.954,24.051 55.612,24.051c21.657,-0 40.193,-8.017 55.61,-24.051c15.417,-16.033 23.124,-35.652 23.125,-58.855c-0.001,-23.204 -7.708,-42.823 -23.125,-58.856c-15.417,-16.034 -33.953,-24.05 -55.61,-24.051c-21.658,0.001 -40.195,8.017 -55.612,24.051Zm-101.86,-104.918l78.736,0l-0,22.511c24.271,-15.007 50.516,-22.51 78.736,-22.511c43.301,0.001 80.372,16.038 111.211,48.111c30.84,32.074 46.259,70.628 46.26,115.663c-0.001,45.035 -15.42,83.589 -46.26,115.662c-30.839,32.074 -67.91,48.111 -111.211,48.111c-28.22,-0 -54.465,-7.504 -78.736,-22.511l-0,186.284l-78.736,-0l-0,-491.32Z" style="fill:#fff;fill-rule:nonzero;"/><rect id="path9894" x="7501.94" y="2435.12" width="78.736" height="81.887" style="fill:#fff;fill-rule:nonzero;"/></g><g id="text9896"><path id="path9901" d="M2583.42,1740.1l69.023,-0l-0,229.396l51.766,0l-17.255,65.542l-34.511,0l-0,98.313l-69.023,0l0,-98.313l-172.555,0l0,-65.542l172.555,-229.396Zm0,229.396l0,-137.644l-103.533,137.644l103.533,0Z" style="fill-rule:nonzero;"/><path id="path9903" d="M2997.55,2067.81l-0,65.542l-224.322,0l0,-42.596l162.209,-206.466c6.897,-8.737 10.346,-18.567 10.346,-29.491c0,-13.654 -5.033,-25.261 -15.098,-34.819c-10.067,-9.558 -22.289,-14.337 -36.668,-14.337c-14.38,-0 -26.603,4.779 -36.669,14.337c-10.065,9.558 -15.098,21.165 -15.098,34.819l-69.022,0c0,-31.682 11.79,-58.72 35.371,-81.111c23.58,-22.391 52.052,-33.587 85.418,-33.587c33.364,0 61.837,11.196 85.418,33.587c23.579,22.391 35.37,49.429 35.37,81.111c0,26.221 -8.341,49.706 -25.024,70.454l-112.16,142.557l119.929,0Z" style="fill-rule:nonzero;"/><path id="path9905" d="M3268.89,1955.58c-13.514,-12.566 -29.761,-18.849 -48.741,-18.85c-18.98,0.001 -35.227,6.281 -48.741,18.842c-13.515,12.561 -20.273,28.128 -20.273,46.7c0,18.573 6.758,34.276 20.273,47.109c13.514,12.833 29.761,19.249 48.741,19.249c18.98,0 35.23,-6.416 48.75,-19.249c13.521,-12.833 20.28,-28.536 20.28,-47.109c0,-18.572 -6.762,-34.136 -20.289,-46.692Zm48.751,139.277c-27.029,25.666 -59.527,38.499 -97.492,38.499c-37.965,0 -70.463,-12.836 -97.492,-38.507c-27.029,-25.672 -40.544,-56.531 -40.544,-92.577c-0,-24.034 6.325,-46.153 18.975,-66.358l132.011,-212.195l80.228,0l-91.451,147.47c37.388,0.544 69.455,13.516 96.203,38.915c26.748,25.4 40.122,56.123 40.122,92.168c0,36.046 -13.52,66.908 -40.56,92.585Z" style="fill-rule:nonzero;"/></g><path id="rect9923" d="M9169.3,3620.26c0,-33.921 -27.54,-61.461 -61.461,-61.461l-2306.08,-0c-33.921,-0 -61.461,27.54 -61.461,61.461l-0,433.736c-0,33.921 27.54,61.461 61.461,61.461l2306.08,-0c33.921,-0 61.461,-27.54 61.461,-61.461l0,-433.736Z" style="fill:#039;"/><g id="text9907"><path id="path9912" d="M7343.46,3729.11l-4.858,58.541c7.87,-1.86 15.744,-2.79 23.623,-2.791c30.565,0.001 56.731,10.919 78.501,32.755c21.767,21.836 32.652,48.085 32.652,78.745c-0,30.661 -10.885,56.909 -32.652,78.745c-21.77,21.837 -47.936,32.755 -78.501,32.755c-5.563,-0 -11.352,-0.463 -17.367,-1.389l-78.508,-12.549l4.166,-55.75l82.672,13.244c3.239,0.463 6.251,0.694 9.037,0.694c15.278,-0 28.361,-5.342 39.247,-16.027c10.886,-10.684 16.329,-23.925 16.329,-39.723c0,-15.797 -5.443,-29.039 -16.329,-39.723c-10.886,-10.684 -23.969,-16.027 -39.247,-16.027l-83.364,0l13.894,-167.249l166.729,-0l-0,55.749l-116.024,0Z" style="fill:#fff;fill-rule:nonzero;"/><path id="path9914" d="M7598.78,3757.68c-9.263,26.949 -13.894,54.593 -13.894,82.93c-0,28.338 4.631,55.982 13.894,82.931c2.786,8.357 7.998,15.208 15.638,20.552c7.639,5.345 16.323,8.017 26.052,8.017c9.727,-0 18.411,-2.672 26.051,-8.017c7.639,-5.344 12.846,-12.195 15.623,-20.552c9.263,-26.949 13.894,-54.593 13.894,-82.931c0,-28.337 -4.631,-55.981 -13.894,-82.93c-2.777,-8.357 -7.984,-15.208 -15.623,-20.553c-7.64,-5.344 -16.324,-8.016 -26.051,-8.017c-9.729,0.001 -18.413,2.673 -26.052,8.017c-7.64,5.345 -12.852,12.196 -15.638,20.553Zm-50.013,186.073c-12.972,-37.638 -19.457,-72.019 -19.457,-103.143c-0,-31.123 6.485,-65.504 19.457,-103.142c6.947,-19.046 18.756,-34.492 35.427,-46.338c16.671,-11.846 35.427,-17.769 56.268,-17.769c20.841,-0 39.6,5.923 56.276,17.769c16.674,11.846 28.486,27.292 35.433,46.338c12.963,37.638 19.444,72.019 19.444,103.142c-0,31.124 -6.481,65.505 -19.444,103.143c-6.947,19.046 -18.759,34.492 -35.433,46.338c-16.676,11.846 -35.435,17.769 -56.276,17.769c-20.841,-0 -39.597,-5.923 -56.268,-17.769c-16.671,-11.846 -28.48,-27.292 -35.427,-46.338Z" style="fill:#fff;fill-rule:nonzero;"/><path id="path9916" d="M7887.33,3757.68c-9.263,26.949 -13.894,54.593 -13.894,82.93c-0,28.338 4.631,55.982 13.894,82.931c2.786,8.357 7.998,15.208 15.637,20.552c7.639,5.345 16.323,8.017 26.052,8.017c9.728,-0 18.412,-2.672 26.051,-8.017c7.639,-5.344 12.847,-12.195 15.624,-20.552c9.263,-26.949 13.894,-54.593 13.894,-82.931c0,-28.337 -4.631,-55.981 -13.894,-82.93c-2.777,-8.357 -7.985,-15.208 -15.624,-20.553c-7.639,-5.344 -16.323,-8.016 -26.051,-8.017c-9.729,0.001 -18.413,2.673 -26.052,8.017c-7.639,5.345 -12.851,12.196 -15.637,20.553Zm-50.013,186.073c-12.972,-37.638 -19.457,-72.019 -19.457,-103.143c-0,-31.123 6.485,-65.504 19.457,-103.142c6.947,-19.046 18.756,-34.492 35.427,-46.338c16.671,-11.846 35.427,-17.769 56.268,-17.769c20.841,-0 39.599,5.923 56.275,17.769c16.675,11.846 28.486,27.292 35.434,46.338c12.962,37.638 19.444,72.019 19.444,103.142c-0,31.124 -6.482,65.505 -19.444,103.143c-6.948,19.046 -18.759,34.492 -35.434,46.338c-16.676,11.846 -35.434,17.769 -56.275,17.769c-20.841,-0 -39.597,-5.923 -56.268,-17.769c-16.671,-11.846 -28.48,-27.292 -35.427,-46.338Z" style="fill:#fff;fill-rule:nonzero;"/><path id="path9918" d="M8343.53,3784.86l55.576,0l-0,27.875c13.894,-18.583 32.419,-27.874 55.576,-27.875c21.302,0.001 38.901,8.131 52.795,24.391c16.21,-16.26 35.662,-24.39 58.358,-24.391c23.156,0.001 42.84,8.131 59.049,24.391c16.21,16.26 24.315,36.005 24.315,59.234l0,139.375l-55.576,-0l-0,-132.406c-0,-9.754 -3.359,-18 -10.074,-24.738c-6.718,-6.737 -14.937,-10.106 -24.661,-10.106c-9.724,0 -17.945,3.369 -24.661,10.106c-6.717,6.738 -10.075,14.984 -10.075,24.738l0,132.406l-55.576,-0l0,-132.406c0,-9.754 -3.358,-18 -10.074,-24.738c-6.716,-6.737 -14.937,-10.106 -24.661,-10.106c-9.724,0 -17.945,3.369 -24.66,10.106c-6.717,6.738 -10.075,14.984 -10.075,24.738l-0,132.406l-55.576,-0l-0,-223Z" style="fill:#fff;fill-rule:nonzero;"/></g></g></svg>